<mxfile host="Electron" modified="2023-12-12T10:44:00.923Z" agent="Mozilla/5.0 (Windows NT 10.0; Win64; x64) AppleWebKit/537.36 (KHTML, like Gecko) draw.io/22.0.2 Chrome/114.0.5735.289 Electron/25.8.4 Safari/537.36" etag="r_kgxaUAu8uKQRSkZumZ" version="22.0.2" type="device">
  <diagram name="Page-1" id="bqdtm3yjqmqwsocU8Zls">
    <mxGraphModel dx="2072" dy="1308" grid="1" gridSize="10" guides="1" tooltips="1" connect="1" arrows="1" fold="1" page="1" pageScale="1" pageWidth="850" pageHeight="1100" math="0" shadow="0">
      <root>
        <mxCell id="0" />
        <mxCell id="1" parent="0" />
        <mxCell id="mu9JeS2AP0sdWKXdDo3k-18" style="edgeStyle=orthogonalEdgeStyle;rounded=0;orthogonalLoop=1;jettySize=auto;html=1;entryX=0.5;entryY=0;entryDx=0;entryDy=0;strokeColor=#007FFF;fontColor=#007FFF;fontFamily=consolas;" parent="1" source="mu9JeS2AP0sdWKXdDo3k-1" target="mu9JeS2AP0sdWKXdDo3k-2" edge="1">
          <mxGeometry relative="1" as="geometry" />
        </mxCell>
        <mxCell id="mu9JeS2AP0sdWKXdDo3k-1" value="START" style="strokeWidth=2;html=1;shape=mxgraph.flowchart.terminator;whiteSpace=wrap;strokeColor=#007FFF;fontColor=#007FFF;fontFamily=consolas;" parent="1" vertex="1">
          <mxGeometry x="360" y="21" width="100" height="60" as="geometry" />
        </mxCell>
        <mxCell id="mu9JeS2AP0sdWKXdDo3k-19" style="edgeStyle=orthogonalEdgeStyle;rounded=0;orthogonalLoop=1;jettySize=auto;html=1;entryX=0.5;entryY=0;entryDx=0;entryDy=0;strokeColor=#007FFF;fontColor=#007FFF;fontFamily=consolas;" parent="1" source="mu9JeS2AP0sdWKXdDo3k-2" target="mu9JeS2AP0sdWKXdDo3k-3" edge="1">
          <mxGeometry relative="1" as="geometry" />
        </mxCell>
        <mxCell id="mu9JeS2AP0sdWKXdDo3k-2" value="char tulisan1_07746[100], tulisan2_07746[100];" style="shape=hexagon;perimeter=hexagonPerimeter2;whiteSpace=wrap;html=1;fixedSize=1;strokeColor=#007FFF;fontColor=#007FFF;fontFamily=consolas;" parent="1" vertex="1">
          <mxGeometry x="280" y="110" width="260" height="80" as="geometry" />
        </mxCell>
        <mxCell id="mu9JeS2AP0sdWKXdDo3k-20" style="edgeStyle=orthogonalEdgeStyle;rounded=0;orthogonalLoop=1;jettySize=auto;html=1;entryX=0.5;entryY=0;entryDx=0;entryDy=0;strokeColor=#007FFF;fontColor=#007FFF;fontFamily=consolas;" parent="1" source="mu9JeS2AP0sdWKXdDo3k-3" target="mu9JeS2AP0sdWKXdDo3k-4" edge="1">
          <mxGeometry relative="1" as="geometry" />
        </mxCell>
        <mxCell id="mu9JeS2AP0sdWKXdDo3k-3" value="cin.getline&lt;br&gt;(tulisan1_07746,&lt;br&gt;&amp;nbsp;100);" style="shape=parallelogram;perimeter=parallelogramPerimeter;whiteSpace=wrap;html=1;fixedSize=1;strokeColor=#007FFF;fontColor=#007FFF;fontFamily=consolas;" parent="1" vertex="1">
          <mxGeometry x="345" y="222" width="130" height="60" as="geometry" />
        </mxCell>
        <mxCell id="mu9JeS2AP0sdWKXdDo3k-21" style="edgeStyle=orthogonalEdgeStyle;rounded=0;orthogonalLoop=1;jettySize=auto;html=1;entryX=0.5;entryY=0;entryDx=0;entryDy=0;strokeColor=#007FFF;fontColor=#007FFF;fontFamily=consolas;" parent="1" source="mu9JeS2AP0sdWKXdDo3k-4" target="mu9JeS2AP0sdWKXdDo3k-5" edge="1">
          <mxGeometry relative="1" as="geometry" />
        </mxCell>
        <mxCell id="mu9JeS2AP0sdWKXdDo3k-4" value="&lt;div&gt;&amp;nbsp; &amp;nbsp; strcpy(tulisan2_07746, tulisan1_07746);&lt;/div&gt;&lt;div&gt;&amp;nbsp; &amp;nbsp; strrev(tulisan1_07746);&lt;/div&gt;&lt;div&gt;&lt;br&gt;&lt;/div&gt;" style="rounded=0;whiteSpace=wrap;html=1;strokeColor=#007FFF;fontColor=#007FFF;fontFamily=consolas;" parent="1" vertex="1">
          <mxGeometry x="335" y="320" width="150" height="60" as="geometry" />
        </mxCell>
        <mxCell id="mu9JeS2AP0sdWKXdDo3k-22" style="edgeStyle=orthogonalEdgeStyle;rounded=0;orthogonalLoop=1;jettySize=auto;html=1;entryX=0.5;entryY=0;entryDx=0;entryDy=0;strokeColor=#007FFF;fontColor=#007FFF;fontFamily=consolas;" parent="1" source="mu9JeS2AP0sdWKXdDo3k-5" target="mu9JeS2AP0sdWKXdDo3k-7" edge="1">
          <mxGeometry relative="1" as="geometry" />
        </mxCell>
        <mxCell id="mu9JeS2AP0sdWKXdDo3k-5" value="tulisan1_07746" style="shape=parallelogram;perimeter=parallelogramPerimeter;whiteSpace=wrap;html=1;fixedSize=1;strokeColor=#007FFF;fontColor=#007FFF;fontFamily=consolas;" parent="1" vertex="1">
          <mxGeometry x="350" y="426" width="120" height="60" as="geometry" />
        </mxCell>
        <mxCell id="mu9JeS2AP0sdWKXdDo3k-41" style="edgeStyle=orthogonalEdgeStyle;rounded=0;orthogonalLoop=1;jettySize=auto;html=1;strokeColor=#007FFF;fontColor=#007FFF;fontFamily=consolas;" parent="1" source="mu9JeS2AP0sdWKXdDo3k-7" edge="1">
          <mxGeometry relative="1" as="geometry">
            <mxPoint x="1180" y="1210" as="targetPoint" />
            <Array as="points">
              <mxPoint x="1960" y="566" />
              <mxPoint x="1960" y="1170" />
            </Array>
          </mxGeometry>
        </mxCell>
        <mxCell id="mu9JeS2AP0sdWKXdDo3k-7" value="&amp;nbsp;for (int i_07746 = 0; i_07746 &amp;lt; strlen(tulisan2_07746); i_07746++)" style="shape=hexagon;perimeter=hexagonPerimeter2;whiteSpace=wrap;html=1;fixedSize=1;strokeColor=#007FFF;fontColor=#007FFF;fontFamily=consolas;" parent="1" vertex="1">
          <mxGeometry x="223.5" y="526" width="372.5" height="80" as="geometry" />
        </mxCell>
        <mxCell id="mu9JeS2AP0sdWKXdDo3k-8" value="if (tulisan2_07746[i_07746] == &#39;u&#39;)" style="html=1;whiteSpace=wrap;aspect=fixed;shape=isoRectangle;strokeColor=#007FFF;fontColor=#007FFF;fontFamily=consolas;" parent="1" vertex="1">
          <mxGeometry x="259" y="656" width="300" height="180" as="geometry" />
        </mxCell>
        <mxCell id="mu9JeS2AP0sdWKXdDo3k-29" style="edgeStyle=orthogonalEdgeStyle;rounded=0;orthogonalLoop=1;jettySize=auto;html=1;entryX=0.5;entryY=0;entryDx=0;entryDy=0;strokeColor=#007FFF;fontColor=#007FFF;fontFamily=consolas;" parent="1" source="mu9JeS2AP0sdWKXdDo3k-10" target="mu9JeS2AP0sdWKXdDo3k-14" edge="1">
          <mxGeometry relative="1" as="geometry" />
        </mxCell>
        <mxCell id="mu9JeS2AP0sdWKXdDo3k-10" value="else if (tulisan2_07746[i_07746] == &#39;J&#39;)" style="html=1;whiteSpace=wrap;aspect=fixed;shape=isoRectangle;strokeColor=#007FFF;fontColor=#007FFF;fontFamily=consolas;" parent="1" vertex="1">
          <mxGeometry x="649" y="656" width="300" height="180" as="geometry" />
        </mxCell>
        <mxCell id="mu9JeS2AP0sdWKXdDo3k-30" style="edgeStyle=orthogonalEdgeStyle;rounded=0;orthogonalLoop=1;jettySize=auto;html=1;entryX=0.5;entryY=0;entryDx=0;entryDy=0;strokeColor=#007FFF;fontColor=#007FFF;fontFamily=consolas;" parent="1" source="mu9JeS2AP0sdWKXdDo3k-11" target="mu9JeS2AP0sdWKXdDo3k-15" edge="1">
          <mxGeometry relative="1" as="geometry" />
        </mxCell>
        <mxCell id="mu9JeS2AP0sdWKXdDo3k-11" value="else if (tulisan2_07746[i_07746] == &#39;y&#39;)" style="html=1;whiteSpace=wrap;aspect=fixed;shape=isoRectangle;strokeColor=#007FFF;fontColor=#007FFF;fontFamily=consolas;" parent="1" vertex="1">
          <mxGeometry x="1026" y="656" width="300" height="180" as="geometry" />
        </mxCell>
        <mxCell id="mu9JeS2AP0sdWKXdDo3k-31" style="edgeStyle=orthogonalEdgeStyle;rounded=0;orthogonalLoop=1;jettySize=auto;html=1;entryX=0.5;entryY=0;entryDx=0;entryDy=0;strokeColor=#007FFF;fontColor=#007FFF;fontFamily=consolas;" parent="1" source="mu9JeS2AP0sdWKXdDo3k-12" target="mu9JeS2AP0sdWKXdDo3k-16" edge="1">
          <mxGeometry relative="1" as="geometry" />
        </mxCell>
        <mxCell id="mu9JeS2AP0sdWKXdDo3k-12" value="else if (tulisan2_07746[i_07746] == &#39;C&#39;)" style="html=1;whiteSpace=wrap;aspect=fixed;shape=isoRectangle;strokeColor=#007FFF;fontColor=#007FFF;fontFamily=consolas;" parent="1" vertex="1">
          <mxGeometry x="1399" y="656" width="300" height="180" as="geometry" />
        </mxCell>
        <mxCell id="mu9JeS2AP0sdWKXdDo3k-33" style="edgeStyle=orthogonalEdgeStyle;rounded=0;orthogonalLoop=1;jettySize=auto;html=1;entryX=0.5;entryY=0;entryDx=0;entryDy=0;strokeColor=#007FFF;fontColor=#007FFF;fontFamily=consolas;" parent="1" source="mu9JeS2AP0sdWKXdDo3k-13" target="mu9JeS2AP0sdWKXdDo3k-32" edge="1">
          <mxGeometry relative="1" as="geometry">
            <Array as="points">
              <mxPoint x="403" y="1000" />
              <mxPoint x="1176" y="1000" />
            </Array>
          </mxGeometry>
        </mxCell>
        <mxCell id="mu9JeS2AP0sdWKXdDo3k-13" value="&#39;&#39;oe&#39;&#39;" style="shape=parallelogram;perimeter=parallelogramPerimeter;whiteSpace=wrap;html=1;fixedSize=1;strokeColor=#007FFF;fontColor=#007FFF;fontFamily=consolas;" parent="1" vertex="1">
          <mxGeometry x="343" y="876" width="120" height="60" as="geometry" />
        </mxCell>
        <mxCell id="mu9JeS2AP0sdWKXdDo3k-37" style="edgeStyle=orthogonalEdgeStyle;rounded=0;orthogonalLoop=1;jettySize=auto;html=1;entryX=0.5;entryY=0;entryDx=0;entryDy=0;strokeColor=#007FFF;fontColor=#007FFF;fontFamily=consolas;" parent="1" source="mu9JeS2AP0sdWKXdDo3k-14" target="mu9JeS2AP0sdWKXdDo3k-32" edge="1">
          <mxGeometry relative="1" as="geometry">
            <mxPoint x="850.0000000000001" y="1050.7442314680231" as="targetPoint" />
            <Array as="points">
              <mxPoint x="799" y="1000" />
              <mxPoint x="1176" y="1000" />
            </Array>
          </mxGeometry>
        </mxCell>
        <mxCell id="mu9JeS2AP0sdWKXdDo3k-14" value="&#39;&#39;DJ&#39;&#39;" style="shape=parallelogram;perimeter=parallelogramPerimeter;whiteSpace=wrap;html=1;fixedSize=1;strokeColor=#007FFF;fontColor=#007FFF;fontFamily=consolas;" parent="1" vertex="1">
          <mxGeometry x="739" y="876" width="120" height="60" as="geometry" />
        </mxCell>
        <mxCell id="mu9JeS2AP0sdWKXdDo3k-34" style="edgeStyle=orthogonalEdgeStyle;rounded=0;orthogonalLoop=1;jettySize=auto;html=1;entryX=0.5;entryY=0;entryDx=0;entryDy=0;strokeColor=#007FFF;fontColor=#007FFF;fontFamily=consolas;" parent="1" source="mu9JeS2AP0sdWKXdDo3k-15" target="mu9JeS2AP0sdWKXdDo3k-32" edge="1">
          <mxGeometry relative="1" as="geometry" />
        </mxCell>
        <mxCell id="mu9JeS2AP0sdWKXdDo3k-15" value="&#39;&#39;j&#39;&#39;" style="shape=parallelogram;perimeter=parallelogramPerimeter;whiteSpace=wrap;html=1;fixedSize=1;strokeColor=#007FFF;fontColor=#007FFF;fontFamily=consolas;" parent="1" vertex="1">
          <mxGeometry x="1116" y="876" width="120" height="60" as="geometry" />
        </mxCell>
        <mxCell id="mu9JeS2AP0sdWKXdDo3k-39" style="edgeStyle=orthogonalEdgeStyle;rounded=0;orthogonalLoop=1;jettySize=auto;html=1;entryX=0.5;entryY=0;entryDx=0;entryDy=0;strokeColor=#007FFF;fontColor=#007FFF;fontFamily=consolas;" parent="1" source="mu9JeS2AP0sdWKXdDo3k-16" target="mu9JeS2AP0sdWKXdDo3k-32" edge="1">
          <mxGeometry relative="1" as="geometry">
            <Array as="points">
              <mxPoint x="1549" y="1000" />
              <mxPoint x="1176" y="1000" />
            </Array>
          </mxGeometry>
        </mxCell>
        <mxCell id="mu9JeS2AP0sdWKXdDo3k-16" value="&#39;&#39;TJ&#39;&#39;" style="shape=parallelogram;perimeter=parallelogramPerimeter;whiteSpace=wrap;html=1;fixedSize=1;strokeColor=#007FFF;fontColor=#007FFF;fontFamily=consolas;" parent="1" vertex="1">
          <mxGeometry x="1489" y="876" width="120" height="60" as="geometry" />
        </mxCell>
        <mxCell id="mu9JeS2AP0sdWKXdDo3k-38" style="edgeStyle=orthogonalEdgeStyle;rounded=0;orthogonalLoop=1;jettySize=auto;html=1;entryX=0.5;entryY=0;entryDx=0;entryDy=0;strokeColor=#007FFF;fontColor=#007FFF;fontFamily=consolas;" parent="1" source="mu9JeS2AP0sdWKXdDo3k-17" target="mu9JeS2AP0sdWKXdDo3k-32" edge="1">
          <mxGeometry relative="1" as="geometry">
            <Array as="points">
              <mxPoint x="1859" y="1000" />
              <mxPoint x="1176" y="1000" />
            </Array>
          </mxGeometry>
        </mxCell>
        <mxCell id="mu9JeS2AP0sdWKXdDo3k-17" value="tulisan2_07746&lt;br&gt;[i_07746]" style="shape=parallelogram;perimeter=parallelogramPerimeter;whiteSpace=wrap;html=1;fixedSize=1;strokeColor=#007FFF;fontColor=#007FFF;fontFamily=consolas;" parent="1" vertex="1">
          <mxGeometry x="1799" y="876" width="120" height="60" as="geometry" />
        </mxCell>
        <mxCell id="mu9JeS2AP0sdWKXdDo3k-23" style="edgeStyle=orthogonalEdgeStyle;rounded=0;orthogonalLoop=1;jettySize=auto;html=1;entryX=0.502;entryY=0.008;entryDx=0;entryDy=0;entryPerimeter=0;strokeColor=#007FFF;fontColor=#007FFF;fontFamily=consolas;" parent="1" source="mu9JeS2AP0sdWKXdDo3k-7" target="mu9JeS2AP0sdWKXdDo3k-8" edge="1">
          <mxGeometry relative="1" as="geometry" />
        </mxCell>
        <mxCell id="mu9JeS2AP0sdWKXdDo3k-24" style="edgeStyle=orthogonalEdgeStyle;rounded=0;orthogonalLoop=1;jettySize=auto;html=1;entryX=-0.001;entryY=0.503;entryDx=0;entryDy=0;entryPerimeter=0;strokeColor=#007FFF;fontColor=#007FFF;fontFamily=consolas;" parent="1" source="mu9JeS2AP0sdWKXdDo3k-8" target="mu9JeS2AP0sdWKXdDo3k-10" edge="1">
          <mxGeometry relative="1" as="geometry" />
        </mxCell>
        <mxCell id="iL-TCDtyjcuezdC4RqPD-5" value="FALSE" style="edgeLabel;html=1;align=center;verticalAlign=middle;resizable=0;points=[];" vertex="1" connectable="0" parent="mu9JeS2AP0sdWKXdDo3k-24">
          <mxGeometry x="-0.1696" y="-1" relative="1" as="geometry">
            <mxPoint x="-1" y="9" as="offset" />
          </mxGeometry>
        </mxCell>
        <mxCell id="mu9JeS2AP0sdWKXdDo3k-25" style="edgeStyle=orthogonalEdgeStyle;rounded=0;orthogonalLoop=1;jettySize=auto;html=1;entryX=-0.002;entryY=0.497;entryDx=0;entryDy=0;entryPerimeter=0;strokeColor=#007FFF;fontColor=#007FFF;fontFamily=consolas;" parent="1" source="mu9JeS2AP0sdWKXdDo3k-10" target="mu9JeS2AP0sdWKXdDo3k-11" edge="1">
          <mxGeometry relative="1" as="geometry" />
        </mxCell>
        <mxCell id="mu9JeS2AP0sdWKXdDo3k-26" style="edgeStyle=orthogonalEdgeStyle;rounded=0;orthogonalLoop=1;jettySize=auto;html=1;entryX=-0.003;entryY=0.499;entryDx=0;entryDy=0;entryPerimeter=0;strokeColor=#007FFF;fontColor=#007FFF;fontFamily=consolas;" parent="1" source="mu9JeS2AP0sdWKXdDo3k-11" target="mu9JeS2AP0sdWKXdDo3k-12" edge="1">
          <mxGeometry relative="1" as="geometry" />
        </mxCell>
        <mxCell id="mu9JeS2AP0sdWKXdDo3k-27" style="edgeStyle=orthogonalEdgeStyle;rounded=0;orthogonalLoop=1;jettySize=auto;html=1;entryX=0.567;entryY=0;entryDx=0;entryDy=0;entryPerimeter=0;strokeColor=#007FFF;fontColor=#007FFF;fontFamily=consolas;" parent="1" source="mu9JeS2AP0sdWKXdDo3k-12" target="mu9JeS2AP0sdWKXdDo3k-17" edge="1">
          <mxGeometry relative="1" as="geometry" />
        </mxCell>
        <mxCell id="mu9JeS2AP0sdWKXdDo3k-28" style="edgeStyle=orthogonalEdgeStyle;rounded=0;orthogonalLoop=1;jettySize=auto;html=1;entryX=0.549;entryY=-0.003;entryDx=0;entryDy=0;entryPerimeter=0;strokeColor=#007FFF;fontColor=#007FFF;fontFamily=consolas;" parent="1" source="mu9JeS2AP0sdWKXdDo3k-8" target="mu9JeS2AP0sdWKXdDo3k-13" edge="1">
          <mxGeometry relative="1" as="geometry" />
        </mxCell>
        <mxCell id="iL-TCDtyjcuezdC4RqPD-1" value="TRUE" style="edgeLabel;html=1;align=center;verticalAlign=middle;resizable=0;points=[];rotation=-90;" vertex="1" connectable="0" parent="mu9JeS2AP0sdWKXdDo3k-28">
          <mxGeometry x="-0.2302" y="-1" relative="1" as="geometry">
            <mxPoint x="11" as="offset" />
          </mxGeometry>
        </mxCell>
        <mxCell id="mu9JeS2AP0sdWKXdDo3k-40" style="edgeStyle=orthogonalEdgeStyle;rounded=0;orthogonalLoop=1;jettySize=auto;html=1;entryX=0;entryY=0.5;entryDx=0;entryDy=0;strokeColor=#007FFF;fontColor=#007FFF;fontFamily=consolas;" parent="1" source="mu9JeS2AP0sdWKXdDo3k-32" target="mu9JeS2AP0sdWKXdDo3k-7" edge="1">
          <mxGeometry relative="1" as="geometry">
            <Array as="points">
              <mxPoint x="150" y="1100" />
              <mxPoint x="150" y="566" />
            </Array>
          </mxGeometry>
        </mxCell>
        <mxCell id="mu9JeS2AP0sdWKXdDo3k-32" value="" style="ellipse;whiteSpace=wrap;html=1;aspect=fixed;strokeColor=#007FFF;fontColor=#007FFF;fontFamily=consolas;" parent="1" vertex="1">
          <mxGeometry x="1136" y="1060" width="80" height="80" as="geometry" />
        </mxCell>
        <mxCell id="mu9JeS2AP0sdWKXdDo3k-42" value="END" style="strokeWidth=2;html=1;shape=mxgraph.flowchart.terminator;whiteSpace=wrap;strokeColor=#007FFF;fontColor=#007FFF;fontFamily=consolas;" parent="1" vertex="1">
          <mxGeometry x="1130" y="1212" width="100" height="60" as="geometry" />
        </mxCell>
        <mxCell id="iL-TCDtyjcuezdC4RqPD-2" value="TRUE" style="edgeLabel;html=1;align=center;verticalAlign=middle;resizable=0;points=[];rotation=-90;" vertex="1" connectable="0" parent="1">
          <mxGeometry x="810.0030714285714" y="849.9991428571428" as="geometry" />
        </mxCell>
        <mxCell id="iL-TCDtyjcuezdC4RqPD-3" value="TRUE" style="edgeLabel;html=1;align=center;verticalAlign=middle;resizable=0;points=[];rotation=-90;" vertex="1" connectable="0" parent="1">
          <mxGeometry x="1170.0030714285713" y="849.9991428571428" as="geometry">
            <mxPoint x="-2.9999999999999987" y="21" as="offset" />
          </mxGeometry>
        </mxCell>
        <mxCell id="iL-TCDtyjcuezdC4RqPD-4" value="TRUE" style="edgeLabel;html=1;align=center;verticalAlign=middle;resizable=0;points=[];rotation=-90;" vertex="1" connectable="0" parent="1">
          <mxGeometry x="1540.0030714285713" y="849.9991428571428" as="geometry">
            <mxPoint x="-2.9999999999999987" y="21" as="offset" />
          </mxGeometry>
        </mxCell>
        <mxCell id="iL-TCDtyjcuezdC4RqPD-6" value="FALSE" style="edgeLabel;html=1;align=center;verticalAlign=middle;resizable=0;points=[];" vertex="1" connectable="0" parent="1">
          <mxGeometry x="960.0042857142857" y="752" as="geometry">
            <mxPoint x="24" y="4" as="offset" />
          </mxGeometry>
        </mxCell>
        <mxCell id="iL-TCDtyjcuezdC4RqPD-7" value="FALSE" style="edgeLabel;html=1;align=center;verticalAlign=middle;resizable=0;points=[];" vertex="1" connectable="0" parent="1">
          <mxGeometry x="1340.0042857142857" y="752" as="geometry">
            <mxPoint x="24" y="4" as="offset" />
          </mxGeometry>
        </mxCell>
        <mxCell id="iL-TCDtyjcuezdC4RqPD-8" value="FALSE" style="edgeLabel;html=1;align=center;verticalAlign=middle;resizable=0;points=[];" vertex="1" connectable="0" parent="1">
          <mxGeometry x="1702.0042857142857" y="752" as="geometry">
            <mxPoint x="24" y="4" as="offset" />
          </mxGeometry>
        </mxCell>
      </root>
    </mxGraphModel>
  </diagram>
</mxfile>
